<?xml version="1.0" encoding="UTF-8"?>
<svg xmlns="http://www.w3.org/2000/svg" width="800" height="440" viewBox="0 0 800 440" fill="none">
  <defs>
    <linearGradient id="bg" x1="0" y1="0" x2="800" y2="440" gradientUnits="userSpaceOnUse">
      <stop stop-color="#eff6ff"/>
      <stop offset="0.55" stop-color="#dbeafe"/>
      <stop offset="1" stop-color="#bfdbfe"/>
    </linearGradient>
  </defs>
  <rect width="800" height="440" fill="url(#bg)"/>
  <circle cx="690" cy="78" r="100" fill="#137ece" opacity="0.14"/>
  <circle cx="90" cy="360" r="88" fill="#0ea5e9" opacity="0.12"/>
  <rect x="100" y="88" width="600" height="264" rx="20" fill="#ffffff" stroke="#93c5fd" stroke-width="2"/>
  <rect x="128" y="116" width="160" height="14" rx="7" fill="#137ece" opacity="0.85"/>
  <rect x="128" y="142" width="240" height="10" rx="5" fill="#94a3b8" opacity="0.45"/>
  <rect x="128" y="176" width="120" height="140" rx="12" fill="#137ece" opacity="0.08" stroke="#137ece" stroke-opacity="0.2"/>
  <rect x="264" y="176" width="120" height="140" rx="12" fill="#0ea5e9" opacity="0.08" stroke="#0ea5e9" stroke-opacity="0.25"/>
  <rect x="400" y="176" width="120" height="140" rx="12" fill="#137ece" opacity="0.08" stroke="#137ece" stroke-opacity="0.2"/>
  <rect x="536" y="176" width="136" height="140" rx="12" fill="#10b981" opacity="0.1" stroke="#10b981" stroke-opacity="0.25"/>
  <circle cx="188" cy="220" r="22" fill="#137ece" opacity="0.85"/>
  <circle cx="324" cy="220" r="22" fill="#0ea5e9" opacity="0.85"/>
  <circle cx="460" cy="220" r="22" fill="#137ece" opacity="0.85"/>
  <path d="M210 220h92M346 220h92" stroke="#64748b" stroke-width="2" stroke-linecap="round" opacity="0.35"/>
  <path d="M482 220h32" stroke="#64748b" stroke-width="2" stroke-linecap="round" opacity="0.35"/>
  <path d="M592 220l-8 8 8 8" stroke="#10b981" stroke-width="2.5" stroke-linecap="round" stroke-linejoin="round"/>
  <rect x="148" y="268" width="72" height="8" rx="4" fill="#94a3b8" opacity="0.35"/>
  <rect x="284" y="268" width="72" height="8" rx="4" fill="#94a3b8" opacity="0.35"/>
  <rect x="420" y="268" width="72" height="8" rx="4" fill="#94a3b8" opacity="0.35"/>
  <rect x="564" y="268" width="80" height="8" rx="4" fill="#10b981" opacity="0.5"/>
  <path d="M128 340h544" stroke="#137ece" stroke-width="2" opacity="0.2"/>
  <rect x="128" y="356" width="420" height="12" rx="6" fill="#137ece" opacity="0.15"/>
  <rect x="128" y="356" width="280" height="12" rx="6" fill="#137ece" opacity="0.65"/>
</svg>