<?xml version="1.0" encoding="UTF-8"?>
<svg xmlns="http://www.w3.org/2000/svg" width="800" height="440" viewBox="0 0 800 440" fill="none">
  <defs>
    <linearGradient id="bg" x1="0" y1="0" x2="800" y2="440" gradientUnits="userSpaceOnUse">
      <stop stop-color="#fff7ed"/>
      <stop offset="0.55" stop-color="#ffedd5"/>
      <stop offset="1" stop-color="#fed7aa"/>
    </linearGradient>
    <linearGradient id="screen" x1="180" y1="90" x2="520" y2="340" gradientUnits="userSpaceOnUse">
      <stop stop-color="#ffffff"/>
      <stop offset="1" stop-color="#f8fafc"/>
    </linearGradient>
  </defs>
  <rect width="800" height="440" fill="url(#bg)"/>
  <circle cx="680" cy="80" r="120" fill="#fb923c" opacity="0.18"/>
  <circle cx="90" cy="360" r="90" fill="#f97316" opacity="0.12"/>
  <g opacity="0.35" stroke="#ea580c" stroke-width="1">
    <line x1="0" y1="60" x2="800" y2="60"/>
    <line x1="0" y1="120" x2="800" y2="120"/>
    <line x1="0" y1="180" x2="800" y2="180"/>
  </g>
  <rect x="150" y="72" width="430" height="280" rx="18" fill="url(#screen)" stroke="#fdba74" stroke-width="2"/>
  <rect x="150" y="72" width="430" height="42" rx="18" fill="#fff7ed"/>
  <circle cx="176" cy="93" r="6" fill="#ff5f57"/>
  <circle cx="198" cy="93" r="6" fill="#ffbd2e"/>
  <circle cx="220" cy="93" r="6" fill="#27c93f"/>
  <rect x="176" y="132" width="160" height="14" rx="7" fill="#137ece" opacity="0.85"/>
  <rect x="176" y="158" width="110" height="10" rx="5" fill="#94a3b8" opacity="0.45"/>
  <rect x="176" y="188" width="118" height="88" rx="10" fill="#137ece" opacity="0.08" stroke="#137ece" stroke-opacity="0.25"/>
  <rect x="306" y="188" width="118" height="88" rx="10" fill="#137ece" opacity="0.08" stroke="#137ece" stroke-opacity="0.25"/>
  <rect x="436" y="188" width="118" height="88" rx="10" fill="#137ece" opacity="0.08" stroke="#137ece" stroke-opacity="0.25"/>
  <rect x="176" y="290" width="378" height="38" rx="10" fill="#137ece" opacity="0.12"/>
  <rect x="560" y="132" width="88" height="34" rx="17" fill="#137ece" opacity="0.18"/>
  <rect x="610" y="118" width="130" height="250" rx="22" fill="#ffffff" stroke="#fdba74" stroke-width="2"/>
  <rect x="626" y="142" width="98" height="62" rx="8" fill="#fef3c7"/>
  <rect x="626" y="214" width="98" height="10" rx="5" fill="#cbd5e1"/>
  <rect x="626" y="232" width="72" height="10" rx="5" fill="#cbd5e1"/>
  <rect x="626" y="258" width="98" height="28" rx="8" fill="#137ece" opacity="0.15"/>
  <path d="M552 300 L590 262 L628 286 L676 230 L710 260" stroke="#137ece" stroke-width="3" stroke-linecap="round" stroke-linejoin="round" opacity="0.55"/>
  <circle cx="590" cy="262" r="5" fill="#137ece"/>
  <circle cx="676" cy="230" r="5" fill="#137ece"/>
  <rect x="176" y="188" width="118" height="88" rx="10" fill="#ffffff" opacity="0.65"/>
  <path d="M214 236h42M214 252h28" stroke="#64748b" stroke-width="3" stroke-linecap="round"/>
  <rect x="248" y="224" width="28" height="28" rx="6" fill="#137ece" opacity="0.2"/>
</svg>