<?xml version="1.0" encoding="UTF-8"?>
<svg xmlns="http://www.w3.org/2000/svg" width="800" height="440" viewBox="0 0 800 440" fill="none">
  <defs>
    <linearGradient id="bg" x1="0" y1="0" x2="800" y2="440" gradientUnits="userSpaceOnUse">
      <stop stop-color="#eef2ff"/>
      <stop offset="0.55" stop-color="#e0e7ff"/>
      <stop offset="1" stop-color="#c7d2fe"/>
    </linearGradient>
  </defs>
  <rect width="800" height="440" fill="url(#bg)"/>
  <circle cx="120" cy="90" r="100" fill="#6366f1" opacity="0.16"/>
  <circle cx="700" cy="340" r="130" fill="#4f46e5" opacity="0.12"/>
  <rect x="88" y="88" width="250" height="264" rx="16" fill="#ffffff" stroke="#c7d2fe" stroke-width="2" opacity="0.85"/>
  <rect x="108" y="112" width="88" height="12" rx="6" fill="#94a3b8" opacity="0.35"/>
  <rect x="108" y="136" width="210" height="10" rx="5" fill="#cbd5e1"/>
  <rect x="108" y="156" width="190" height="10" rx="5" fill="#cbd5e1"/>
  <rect x="108" y="176" width="200" height="10" rx="5" fill="#cbd5e1"/>
  <rect x="108" y="206" width="210" height="10" rx="5" fill="#cbd5e1" opacity="0.55"/>
  <rect x="108" y="226" width="180" height="10" rx="5" fill="#cbd5e1" opacity="0.45"/>
  <rect x="108" y="246" width="195" height="10" rx="5" fill="#cbd5e1" opacity="0.35"/>
  <path d="M108 286h210M108 306h170M108 326h190" stroke="#e2e8f0" stroke-width="8" stroke-linecap="round"/>
  <rect x="380" y="96" width="332" height="248" rx="18" fill="#ffffff" stroke="#137ece" stroke-opacity="0.35" stroke-width="2"/>
  <rect x="404" y="120" width="120" height="14" rx="7" fill="#137ece" opacity="0.85"/>
  <rect x="404" y="146" width="84" height="10" rx="5" fill="#94a3b8" opacity="0.45"/>
  <rect x="404" y="176" width="284" height="56" rx="10" fill="#137ece" opacity="0.08" stroke="#137ece" stroke-opacity="0.2"/>
  <rect x="404" y="244" width="136" height="72" rx="10" fill="#137ece" opacity="0.1"/>
  <rect x="552" y="244" width="136" height="72" rx="10" fill="#137ece" opacity="0.1"/>
  <path d="M430 206h232M430 224h180" stroke="#64748b" stroke-width="3" stroke-linecap="round" opacity="0.45"/>
  <circle cx="612" cy="118" r="24" fill="#fef08a" opacity="0.9"/>
  <path d="M612 106v12M612 130v2" stroke="#854d0e" stroke-width="3" stroke-linecap="round"/>
  <circle cx="612" cy="118" r="10" stroke="#854d0e" stroke-width="2.5"/>
  <g stroke="#137ece" stroke-width="2.5" stroke-linecap="round">
    <path d="M338 170 L362 170 L374 182 L404 182" opacity="0.7"/>
    <path d="M338 220 L356 220 L368 208 L404 208" opacity="0.55"/>
    <path d="M338 270 L350 270 L362 258 L404 258" opacity="0.4"/>
  </g>
  <circle cx="350" cy="170" r="5" fill="#137ece"/>
  <circle cx="350" cy="220" r="5" fill="#137ece"/>
  <circle cx="350" cy="270" r="5" fill="#137ece"/>
  <rect x="404" y="176" width="18" height="18" rx="4" fill="#137ece" opacity="0.25"/>
  <path d="M410 185l3 3 6-7" stroke="#137ece" stroke-width="2" stroke-linecap="round" stroke-linejoin="round"/>
</svg>