<?xml version="1.0" encoding="UTF-8"?>
<svg xmlns="http://www.w3.org/2000/svg" width="800" height="440" viewBox="0 0 800 440" fill="none">
  <defs>
    <linearGradient id="bg" x1="0" y1="0" x2="800" y2="440" gradientUnits="userSpaceOnUse">
      <stop stop-color="#ecfeff"/>
      <stop offset="0.55" stop-color="#e0f2fe"/>
      <stop offset="1" stop-color="#bae6fd"/>
    </linearGradient>
  </defs>
  <rect width="800" height="440" fill="url(#bg)"/>
  <circle cx="640" cy="96" r="110" fill="#0ea5e9" opacity="0.16"/>
  <circle cx="120" cy="350" r="100" fill="#137ece" opacity="0.12"/>
  <path d="M120 320 C220 260, 320 300, 420 240 S620 280, 700 220" stroke="#137ece" stroke-width="2" opacity="0.25"/>
  <path d="M80 360 C180 300, 280 340, 380 280 S580 320, 760 260" stroke="#64748b" stroke-width="1.5" opacity="0.2"/>
  <circle cx="280" cy="210" r="120" fill="#ffffff" opacity="0.55" stroke="#7dd3fc" stroke-width="2"/>
  <circle cx="280" cy="210" r="86" fill="#ffffff" opacity="0.65" stroke="#38bdf8" stroke-width="1.5"/>
  <circle cx="280" cy="210" r="52" fill="#ffffff" opacity="0.75" stroke="#0ea5e9" stroke-width="1.5"/>
  <path d="M280 132 C252 168, 248 208, 280 268 C312 208, 308 168, 280 132 Z" fill="#137ece" opacity="0.85"/>
  <circle cx="280" cy="206" r="16" fill="#ffffff"/>
  <circle cx="280" cy="206" r="7" fill="#137ece"/>
  <circle cx="220" cy="180" r="8" fill="#137ece" opacity="0.35"/>
  <circle cx="340" cy="170" r="8" fill="#137ece" opacity="0.35"/>
  <circle cx="350" cy="250" r="8" fill="#137ece" opacity="0.35"/>
  <circle cx="210" cy="245" r="8" fill="#137ece" opacity="0.35"/>
  <line x1="280" y1="206" x2="220" y2="180" stroke="#137ece" stroke-width="1.5" opacity="0.35"/>
  <line x1="280" y1="206" x2="340" y2="170" stroke="#137ece" stroke-width="1.5" opacity="0.35"/>
  <line x1="280" y1="206" x2="350" y2="250" stroke="#137ece" stroke-width="1.5" opacity="0.35"/>
  <line x1="280" y1="206" x2="210" y2="245" stroke="#137ece" stroke-width="1.5" opacity="0.35"/>
  <rect x="470" y="98" width="250" height="244" rx="18" fill="#ffffff" stroke="#7dd3fc" stroke-width="2"/>
  <rect x="494" y="122" width="120" height="14" rx="7" fill="#137ece" opacity="0.85"/>
  <rect x="494" y="148" width="202" height="10" rx="5" fill="#94a3b8" opacity="0.45"/>
  <rect x="494" y="176" width="202" height="56" rx="10" fill="#137ece" opacity="0.08" stroke="#137ece" stroke-opacity="0.2"/>
  <rect x="494" y="244" width="94" height="74" rx="10" fill="#137ece" opacity="0.1"/>
  <rect x="602" y="244" width="94" height="74" rx="10" fill="#137ece" opacity="0.1"/>
  <rect x="494" y="176" width="202" height="56" rx="10" fill="#ffffff" opacity="0.55"/>
  <rect x="510" y="192" width="56" height="24" rx="6" fill="#137ece" opacity="0.15"/>
  <rect x="574" y="192" width="56" height="24" rx="6" fill="#137ece" opacity="0.15"/>
  <rect x="638" y="192" width="42" height="24" rx="6" fill="#137ece" opacity="0.15"/>
  <path d="M508 318h170" stroke="#64748b" stroke-width="3" stroke-linecap="round" opacity="0.35"/>
</svg>