<?xml version="1.0" encoding="UTF-8"?>
<svg xmlns="http://www.w3.org/2000/svg" width="800" height="440" viewBox="0 0 800 440" fill="none">
  <defs>
    <linearGradient id="bg" x1="0" y1="0" x2="800" y2="440" gradientUnits="userSpaceOnUse">
      <stop stop-color="#ecfdf5"/>
      <stop offset="0.55" stop-color="#d1fae5"/>
      <stop offset="1" stop-color="#a7f3d0"/>
    </linearGradient>
  </defs>
  <rect width="800" height="440" fill="url(#bg)"/>
  <circle cx="660" cy="88" r="105" fill="#10b981" opacity="0.16"/>
  <circle cx="110" cy="350" r="92" fill="#137ece" opacity="0.12"/>
  <rect x="280" y="56" width="200" height="328" rx="28" fill="#0f172a"/>
  <rect x="292" y="78" width="176" height="284" rx="18" fill="#ffffff"/>
  <rect x="308" y="98" width="120" height="12" rx="6" fill="#137ece" opacity="0.85"/>
  <rect x="308" y="122" width="144" height="8" rx="4" fill="#94a3b8" opacity="0.4"/>
  <rect x="308" y="148" width="144" height="72" rx="10" fill="#137ece" opacity="0.08" stroke="#137ece" stroke-opacity="0.2"/>
  <rect x="308" y="232" width="68" height="56" rx="8" fill="#10b981" opacity="0.12"/>
  <rect x="384" y="232" width="68" height="56" rx="8" fill="#137ece" opacity="0.12"/>
  <rect x="308" y="300" width="144" height="10" rx="5" fill="#94a3b8" opacity="0.35"/>
  <rect x="308" y="318" width="96" height="10" rx="5" fill="#94a3b8" opacity="0.25"/>
  <path d="M120 140h96" stroke="#64748b" stroke-width="2" stroke-linecap="round" opacity="0.35"/>
  <path d="M120 170h120" stroke="#64748b" stroke-width="2" stroke-linecap="round" opacity="0.25"/>
  <path d="M120 200h80" stroke="#64748b" stroke-width="2" stroke-linecap="round" opacity="0.25"/>
  <circle cx="160" cy="260" r="36" fill="#ffffff" stroke="#10b981" stroke-width="2"/>
  <path d="M148 260l8 8 16-18" stroke="#10b981" stroke-width="3" stroke-linecap="round" stroke-linejoin="round"/>
  <rect x="520" y="120" width="220" height="200" rx="16" fill="#ffffff" stroke="#6ee7b7" stroke-width="2"/>
  <rect x="544" y="144" width="100" height="12" rx="6" fill="#137ece" opacity="0.85"/>
  <rect x="544" y="168" width="172" height="8" rx="4" fill="#94a3b8" opacity="0.4"/>
  <rect x="544" y="192" width="172" height="48" rx="8" fill="#137ece" opacity="0.08"/>
  <rect x="544" y="252" width="80" height="48" rx="8" fill="#10b981" opacity="0.15"/>
  <rect x="636" y="252" width="80" height="48" rx="8" fill="#137ece" opacity="0.12"/>
</svg>