<?xml version="1.0" encoding="UTF-8"?>
<svg xmlns="http://www.w3.org/2000/svg" width="1920" height="1080" viewBox="0 0 1920 1080">
  <rect width="100%" height="100%" fill="#f8fafc"/>
  <circle cx="200" cy="150" r="520" fill="#137ece" opacity="0.22"/>
  <circle cx="1400" cy="100" r="480" fill="#0f6db8" opacity="0.18"/>
  <circle cx="900" cy="500" r="600" fill="#facc15" opacity="0.10"/>
  <circle cx="1600" cy="700" r="400" fill="#f97316" opacity="0.08"/>
  <circle cx="-100" cy="700" r="500" fill="#64748b" opacity="0.12"/>
  <g opacity="0.9"><line x1="0" y1="0" x2="0" y2="1080" stroke="#137ece" stroke-opacity="0.08" stroke-width="1"/><line x1="64" y1="0" x2="64" y2="1080" stroke="#137ece" stroke-opacity="0.08" stroke-width="1"/><line x1="128" y1="0" x2="128" y2="1080" stroke="#137ece" stroke-opacity="0.08" stroke-width="1"/><line x1="192" y1="0" x2="192" y2="1080" stroke="#137ece" stroke-opacity="0.08" stroke-width="1"/><line x1="256" y1="0" x2="256" y2="1080" stroke="#137ece" stroke-opacity="0.08" stroke-width="1"/><line x1="320" y1="0" x2="320" y2="1080" stroke="#137ece" stroke-opacity="0.08" stroke-width="1"/><line x1="384" y1="0" x2="384" y2="1080" stroke="#137ece" stroke-opacity="0.08" stroke-width="1"/><line x1="448" y1="0" x2="448" y2="1080" stroke="#137ece" stroke-opacity="0.08" stroke-width="1"/><line x1="512" y1="0" x2="512" y2="1080" stroke="#137ece" stroke-opacity="0.08" stroke-width="1"/><line x1="576" y1="0" x2="576" y2="1080" stroke="#137ece" stroke-opacity="0.08" stroke-width="1"/><line x1="640" y1="0" x2="640" y2="1080" stroke="#137ece" stroke-opacity="0.08" stroke-width="1"/><line x1="704" y1="0" x2="704" y2="1080" stroke="#137ece" stroke-opacity="0.08" stroke-width="1"/><line x1="768" y1="0" x2="768" y2="1080" stroke="#137ece" stroke-opacity="0.08" stroke-width="1"/><line x1="832" y1="0" x2="832" y2="1080" stroke="#137ece" stroke-opacity="0.08" stroke-width="1"/><line x1="896" y1="0" x2="896" y2="1080" stroke="#137ece" stroke-opacity="0.08" stroke-width="1"/><line x1="960" y1="0" x2="960" y2="1080" stroke="#137ece" stroke-opacity="0.08" stroke-width="1"/><line x1="1024" y1="0" x2="1024" y2="1080" stroke="#137ece" stroke-opacity="0.08" stroke-width="1"/><line x1="1088" y1="0" x2="1088" y2="1080" stroke="#137ece" stroke-opacity="0.08" stroke-width="1"/><line x1="1152" y1="0" x2="1152" y2="1080" stroke="#137ece" stroke-opacity="0.08" stroke-width="1"/><line x1="1216" y1="0" x2="1216" y2="1080" stroke="#137ece" stroke-opacity="0.08" stroke-width="1"/><line x1="1280" y1="0" x2="1280" y2="1080" stroke="#137ece" stroke-opacity="0.08" stroke-width="1"/><line x1="1344" y1="0" x2="1344" y2="1080" stroke="#137ece" stroke-opacity="0.08" stroke-width="1"/><line x1="1408" y1="0" x2="1408" y2="1080" stroke="#137ece" stroke-opacity="0.08" stroke-width="1"/><line x1="1472" y1="0" x2="1472" y2="1080" stroke="#137ece" stroke-opacity="0.08" stroke-width="1"/><line x1="1536" y1="0" x2="1536" y2="1080" stroke="#137ece" stroke-opacity="0.08" stroke-width="1"/><line x1="1600" y1="0" x2="1600" y2="1080" stroke="#137ece" stroke-opacity="0.08" stroke-width="1"/><line x1="1664" y1="0" x2="1664" y2="1080" stroke="#137ece" stroke-opacity="0.08" stroke-width="1"/><line x1="1728" y1="0" x2="1728" y2="1080" stroke="#137ece" stroke-opacity="0.08" stroke-width="1"/><line x1="1792" y1="0" x2="1792" y2="1080" stroke="#137ece" stroke-opacity="0.08" stroke-width="1"/><line x1="1856" y1="0" x2="1856" y2="1080" stroke="#137ece" stroke-opacity="0.08" stroke-width="1"/><line x1="1920" y1="0" x2="1920" y2="1080" stroke="#137ece" stroke-opacity="0.08" stroke-width="1"/><line x1="0" y1="0" x2="1920" y2="0" stroke="#137ece" stroke-opacity="0.08" stroke-width="1"/><line x1="0" y1="64" x2="1920" y2="64" stroke="#137ece" stroke-opacity="0.08" stroke-width="1"/><line x1="0" y1="128" x2="1920" y2="128" stroke="#137ece" stroke-opacity="0.08" stroke-width="1"/><line x1="0" y1="192" x2="1920" y2="192" stroke="#137ece" stroke-opacity="0.08" stroke-width="1"/><line x1="0" y1="256" x2="1920" y2="256" stroke="#137ece" stroke-opacity="0.08" stroke-width="1"/><line x1="0" y1="320" x2="1920" y2="320" stroke="#137ece" stroke-opacity="0.08" stroke-width="1"/><line x1="0" y1="384" x2="1920" y2="384" stroke="#137ece" stroke-opacity="0.08" stroke-width="1"/><line x1="0" y1="448" x2="1920" y2="448" stroke="#137ece" stroke-opacity="0.08" stroke-width="1"/><line x1="0" y1="512" x2="1920" y2="512" stroke="#137ece" stroke-opacity="0.08" stroke-width="1"/><line x1="0" y1="576" x2="1920" y2="576" stroke="#137ece" stroke-opacity="0.08" stroke-width="1"/><line x1="0" y1="640" x2="1920" y2="640" stroke="#137ece" stroke-opacity="0.08" stroke-width="1"/><line x1="0" y1="704" x2="1920" y2="704" stroke="#137ece" stroke-opacity="0.08" stroke-width="1"/><line x1="0" y1="768" x2="1920" y2="768" stroke="#137ece" stroke-opacity="0.08" stroke-width="1"/><line x1="0" y1="832" x2="1920" y2="832" stroke="#137ece" stroke-opacity="0.08" stroke-width="1"/><line x1="0" y1="896" x2="1920" y2="896" stroke="#137ece" stroke-opacity="0.08" stroke-width="1"/><line x1="0" y1="960" x2="1920" y2="960" stroke="#137ece" stroke-opacity="0.08" stroke-width="1"/><line x1="0" y1="1024" x2="1920" y2="1024" stroke="#137ece" stroke-opacity="0.08" stroke-width="1"/></g>
</svg>